<svg width="105" height="27" viewBox="0 0 105 27" fill="none" xmlns="http://www.w3.org/2000/svg">
<g clip-path="url(#clip0_16_8)">
<path fill-rule="evenodd" clip-rule="evenodd" d="M3.57613 23.7007H22.5599C23.2731 23.7007 23.5372 23.3133 23.5219 22.9542C23.5065 22.5694 23.1731 22.2103 22.5958 22.2103H5.24362C1.56231 22.2103 1.56231 16.7588 5.24362 16.7588H23.6989V3.57794C23.6989 1.61029 22.0905 0.00180721 20.1228 0.00180721H3.57613C1.60849 0.00180721 0 1.61286 0 3.57794V20.122C0 22.0897 1.60849 23.6982 3.57613 23.6982V23.7007Z" fill="#4A90E2"/>
<path fill-rule="evenodd" clip-rule="evenodd" d="M5.60254 18.3083H10.3331V26.2482L7.89342 24.8988L5.60254 26.2482V18.3083Z" fill="#F5A623"/>
<path fill-rule="evenodd" clip-rule="evenodd" d="M6.17974 18.8266C5.86164 18.8266 5.60254 18.5674 5.60254 18.2493C5.60254 17.9313 5.86164 17.6721 6.17974 17.6721H22.6674C22.9856 17.6721 23.2446 17.9313 23.2446 18.2493C23.2446 18.5674 22.9856 18.8266 22.6674 18.8266H6.17974Z" fill="#F5A623"/>
<path fill-rule="evenodd" clip-rule="evenodd" d="M6.17974 20.9353C5.86164 20.9353 5.60254 20.6761 5.60254 20.358C5.60254 20.04 5.86164 19.7808 6.17974 19.7808H22.6674C22.9856 19.7808 23.2446 20.04 23.2446 20.358C23.2446 20.6761 22.9856 20.9353 22.6674 20.9353H6.17974Z" fill="#F5A623"/>
<path d="M18.0803 3.68311H6.26163C5.86634 3.68311 5.5459 4.00357 5.5459 4.39886V9.10119C5.5459 9.49648 5.86634 9.81693 6.26163 9.81693H18.0803C18.4756 9.81693 18.796 9.49648 18.796 9.10119V4.39886C18.796 4.00357 18.4756 3.68311 18.0803 3.68311Z" fill="white"/>
<path d="M33.316 17.3518C31.4776 17.3518 30.2563 16.3748 30.2178 14.7807H31.5162C31.5419 15.6034 32.1718 16.1434 33.316 16.1434C34.4859 16.1434 35.1415 15.6034 35.1415 14.7807C35.1415 13.8936 34.2416 13.7522 33.226 13.5722C31.9147 13.3408 30.4106 13.0837 30.4106 11.1939C30.4106 9.66409 31.5676 8.60993 33.3288 8.60993C35.0515 8.60993 36.2085 9.61267 36.2599 11.1168H35.0129C34.9744 10.3712 34.3959 9.81836 33.3546 9.81836C32.2747 9.81836 31.6705 10.384 31.6705 11.1554C31.6705 12.0424 32.5832 12.1838 33.5988 12.3638C34.9229 12.5952 36.4271 12.8523 36.4271 14.7421C36.4271 16.3491 35.1929 17.3518 33.316 17.3518Z" fill="#0F1218"/>
<path d="M39.6636 17.3518C38.1466 17.3518 37.1182 16.5033 37.1182 14.7807V8.58422H38.3395V10.834H41.8362V11.9524H38.3395V14.7807C38.3395 15.7834 38.8665 16.2205 39.6636 16.2205C40.4606 16.2205 41.0006 15.7963 41.0006 14.7807V14.6393H42.209V14.7807C42.209 16.5033 41.1806 17.3518 39.6636 17.3518Z" fill="#0F1218"/>
<path d="M45.9708 17.3518C44.0938 17.3518 42.834 16.2719 42.834 14.1507V10.834H44.0553V14.1507C44.0553 15.5263 44.8138 16.2205 45.9708 16.2205C47.1278 16.2205 47.8863 15.5263 47.8863 14.1507V10.834H49.1075V14.1507C49.1075 16.2591 47.8477 17.3518 45.9708 17.3518Z" fill="#0F1218"/>
<path d="M53.1561 17.3518C51.1378 17.3518 49.7236 15.9634 49.7236 13.9708C49.7236 11.8624 51.292 10.6668 52.9504 10.6668C53.9789 10.6668 54.853 11.1296 55.3158 11.9524V8.05714H56.5371V13.9579C56.5371 16.0277 55.123 17.3518 53.1561 17.3518ZM53.1432 16.2205C54.4417 16.2205 55.3158 15.2949 55.3158 14.0093C55.3158 12.7237 54.4417 11.7981 53.1432 11.7981C51.832 11.7981 50.9578 12.7237 50.9578 14.0093C50.9578 15.2949 51.832 16.2205 53.1432 16.2205Z" fill="#0F1218"/>
<path d="M60.5281 20.0643C59.0625 20.0643 57.8412 19.383 57.4684 17.9432H58.6897C58.9854 18.6631 59.6153 18.9973 60.5281 18.9973C61.7108 18.9973 62.4693 18.4317 62.4693 16.9918V16.0791C62.0707 16.8633 61.2994 17.3004 60.3481 17.3004C58.7668 17.3004 57.417 16.3105 57.417 14.0865V10.834H58.6383V14.0865C58.6383 15.462 59.3968 16.1562 60.5538 16.1562C61.6851 16.1562 62.4693 15.4363 62.4693 14.0865V10.834H63.6906V16.9661C63.6906 19.1773 62.2893 20.0643 60.5281 20.0643Z" fill="#0F1218"/>
<path d="M69.0451 17.3518C66.4225 17.3518 64.5713 15.5006 64.5713 12.9809C64.5713 10.4611 66.4225 8.60993 69.0451 8.60993C71.1148 8.60993 72.7089 9.76694 73.2874 11.5025H72.6189C72.0661 10.114 70.742 9.18843 69.0451 9.18843C66.7825 9.18843 65.2012 10.7954 65.2012 12.9809C65.2012 15.1663 66.7825 16.7733 69.0451 16.7733C70.742 16.7733 72.0661 15.8477 72.6189 14.4593H73.2874C72.7089 16.1948 71.1148 17.3518 69.0451 17.3518Z" fill="#0F1218"/>
<path d="M77.196 17.3518C75.1905 17.3518 73.7764 15.9377 73.7764 14.0093C73.7764 12.081 75.1905 10.6668 77.196 10.6668C79.2015 10.6668 80.6156 12.081 80.6156 14.0093C80.6156 15.9377 79.2015 17.3518 77.196 17.3518ZM77.196 16.799C78.8801 16.799 80.0114 15.6163 80.0114 14.0093C80.0114 12.4024 78.8801 11.2196 77.196 11.2196C75.5119 11.2196 74.3806 12.4024 74.3806 14.0093C74.3806 15.6163 75.5119 16.799 77.196 16.799Z" fill="#0F1218"/>
<path d="M81.2305 19.8972V14.035C81.2305 12.0295 82.6446 10.6668 84.6372 10.6668C86.6427 10.6668 88.0568 12.081 88.0568 14.0222C88.0568 15.9634 86.6427 17.3518 84.7015 17.3518C83.3774 17.3518 82.3103 16.709 81.8218 15.6291V19.8972H81.2305ZM84.6372 16.799C86.3213 16.799 87.4526 15.6163 87.4526 14.0093C87.4526 12.4024 86.3213 11.2196 84.6372 11.2196C82.9531 11.2196 81.8218 12.4024 81.8218 14.0093C81.8218 15.6163 82.9531 16.799 84.6372 16.799Z" fill="#0F1218"/>
<path d="M89.2182 9.41984C88.9353 9.41984 88.7168 9.20129 88.7168 8.91847C88.7168 8.63564 88.9353 8.4171 89.2182 8.4171C89.501 8.4171 89.7195 8.63564 89.7195 8.91847C89.7195 9.20129 89.501 9.41984 89.2182 9.41984ZM88.9353 17.1847V10.834H89.5267V17.1847H88.9353Z" fill="#0F1218"/>
<path d="M90.8975 17.1847V8.05714H91.4888V17.1847H90.8975Z" fill="#0F1218"/>
<path d="M95.7653 17.3518C93.7598 17.3518 92.3457 15.9377 92.3457 14.0093C92.3457 12.081 93.7598 10.6668 95.7653 10.6668C97.7708 10.6668 99.1849 12.081 99.1849 14.0093C99.1849 15.9377 97.7708 17.3518 95.7653 17.3518ZM95.7653 16.799C97.4494 16.799 98.5807 15.6163 98.5807 14.0093C98.5807 12.4024 97.4494 11.2196 95.7653 11.2196C94.0812 11.2196 92.9499 12.4024 92.9499 14.0093C92.9499 15.6163 94.0812 16.799 95.7653 16.799Z" fill="#0F1218"/>
<path d="M102.242 17.3518C100.79 17.3518 99.7998 16.529 99.7998 14.8835V8.58422H100.391V10.834H104.325V11.3739H100.391V14.8835C100.391 16.1691 101.124 16.799 102.242 16.799C103.374 16.799 104.106 16.1819 104.106 14.8835V14.7678H104.672V14.8835C104.672 16.529 103.695 17.3518 102.242 17.3518Z" fill="#0F1218"/>
</g>
<defs>
<clipPath id="clip0_16_8">
<rect width="104.672" height="26.25" fill="white"/>
</clipPath>
</defs>
</svg>
